<?xml version="1.0" encoding="UTF-8"?><svg id="Green2" xmlns="http://www.w3.org/2000/svg" viewBox="0 0 354.33 113.39"><defs><style>.cls-1{fill:#006653;}</style></defs><path class="cls-1" d="m88.43,58.37c0-13.05,8.7-22.15,21.43-22.15,13.76,0,20.96,10.12,20.96,21.75v3.56h-30.77c.4,5.3,4.27,9.1,10.04,9.1,4.82,0,8.07-2.37,9.25-4.98h11.07c-1.9,8.78-9.49,14.4-20.8,14.4-12.1,0-21.2-9.1-21.2-21.67Zm31-4.98c-.47-4.43-4.11-7.83-9.57-7.83s-9.02,3.72-9.57,7.83h19.14Z"/><path class="cls-1" d="m135.52,58.13c0-12.34,8.62-21.91,22.07-21.91,11.63,0,19.93,7.04,21.12,17.24h-12.42c-1.11-3.56-4.27-6.17-8.62-6.17-6.01,0-9.73,4.82-9.73,10.84s3.88,10.84,9.81,10.84c4.11,0,7.36-2.37,8.38-5.69h12.5c-1.34,9.89-9.49,16.77-20.96,16.77-13.45,0-22.15-9.65-22.15-21.91Z"/><path class="cls-1" d="m182.9,58.13c0-12.34,9.02-21.91,22.54-21.91s22.46,9.57,22.46,21.91-9.1,21.91-22.54,21.91-22.46-9.57-22.46-21.91Zm32.59,0c0-6.33-4.27-10.84-10.12-10.84s-10.04,4.51-10.04,10.84,4.27,10.84,10.04,10.84,10.12-4.51,10.12-10.84Z"/><path class="cls-1" d="m238.21,46.82h-6.8v-9.57h7.12v-2.69c0-9.17,6.49-14.87,15.98-14.87h6.01v10.12h-4.59c-3.88,0-5.62,2.21-5.62,5.3v2.14h10.21v9.57h-10.05v32.19h-12.26v-32.19Z"/><path class="cls-1" d="m268.46,65.88V19.69h12.26v44.77c0,2.53,1.27,3.8,3.48,3.8h1.5v10.76h-4.19c-8.38,0-13.05-4.98-13.05-13.13Z"/><path class="cls-1" d="m317.49,37.35l-7.21,21.5c-.63,1.87-3.26,1.88-3.91.02l-7.41-21.52c-.02-.06-.07-.09-.13-.09h-12.43c-.1,0-.17.1-.13.19l16.44,42.31s.01.07,0,.1l-.69,1.93c-1.11,2.77-3.01,4.59-6.33,4.59h-4.68c-.08,0-.14.06-.14.14v10.56c0,.08.06.14.14.14h5.4c8.78,0,13.52-4.51,16.37-12.18l17.65-47.58c.03-.09-.03-.19-.13-.19h-12.67c-.06,0-.11.04-.13.1Z"/><ellipse class="cls-1" cx="29.75" cy="66.36" rx="16.73" ry="6.66" transform="translate(-42.98 67.07) rotate(-66.41)"/><ellipse class="cls-1" cx="55.53" cy="58.59" rx="11.7" ry="22.5" transform="translate(-15.67 20.55) rotate(-18.42)"/><ellipse class="cls-1" cx="17.42" cy="55.12" rx="3.36" ry="6.45" transform="translate(-16.53 8.33) rotate(-18.42)"/></svg>