<?xml version="1.0" encoding="UTF-8" standalone="no"?>
<!DOCTYPE svg PUBLIC "-//W3C//DTD SVG 1.1//EN" "http://www.w3.org/Graphics/SVG/1.1/DTD/svg11.dtd">
<svg width="100%" height="100%" viewBox="0 0 370 125" version="1.1" xmlns="http://www.w3.org/2000/svg" xmlns:xlink="http://www.w3.org/1999/xlink" xml:space="preserve" xmlns:serif="http://www.serif.com/" style="fill-rule:evenodd;clip-rule:evenodd;stroke-linejoin:round;stroke-miterlimit:2;">
    <g transform="matrix(1,0,0,1,-24.2034,18.9732)">
        <g transform="matrix(0.418152,0,0,0.418152,192.265,56.5673)">
            <path d="M88.43,58.37C88.43,45.32 97.13,36.22 109.86,36.22C123.62,36.22 130.82,46.34 130.82,57.97L130.82,61.53L100.05,61.53C100.45,66.83 104.32,70.63 110.09,70.63C114.91,70.63 118.16,68.26 119.34,65.65L130.41,65.65C128.51,74.43 120.92,80.05 109.61,80.05C97.51,80.05 88.41,70.95 88.41,58.38L88.43,58.37ZM119.43,53.39C118.96,48.96 115.32,45.56 109.86,45.56C104.4,45.56 100.84,49.28 100.29,53.39L119.43,53.39Z" style="fill:rgb(255,254,242);fill-rule:nonzero;"/>
        </g>
        <g transform="matrix(0.418152,0,0,0.418152,192.265,56.5673)">
            <path d="M135.52,58.13C135.52,45.79 144.14,36.22 157.59,36.22C169.22,36.22 177.52,43.26 178.71,53.46L166.29,53.46C165.18,49.9 162.02,47.29 157.67,47.29C151.66,47.29 147.94,52.11 147.94,58.13C147.94,64.15 151.82,68.97 157.75,68.97C161.86,68.97 165.11,66.6 166.13,63.28L178.63,63.28C177.29,73.17 169.14,80.05 157.67,80.05C144.22,80.05 135.52,70.4 135.52,58.14L135.52,58.13Z" style="fill:rgb(255,254,242);fill-rule:nonzero;"/>
        </g>
        <g transform="matrix(0.418152,0,0,0.418152,192.265,56.5673)">
            <path d="M182.9,58.13C182.9,45.79 191.92,36.22 205.44,36.22C218.96,36.22 227.9,45.79 227.9,58.13C227.9,70.47 218.8,80.04 205.36,80.04C191.92,80.04 182.9,70.47 182.9,58.13ZM215.49,58.13C215.49,51.8 211.22,47.29 205.37,47.29C199.52,47.29 195.33,51.8 195.33,58.13C195.33,64.46 199.6,68.97 205.37,68.97C211.14,68.97 215.49,64.46 215.49,58.13Z" style="fill:rgb(255,254,242);fill-rule:nonzero;"/>
        </g>
        <g transform="matrix(0.418152,0,0,0.418152,192.265,56.5673)">
            <path d="M238.21,46.82L231.41,46.82L231.41,37.25L238.53,37.25L238.53,34.56C238.53,25.39 245.02,19.69 254.51,19.69L260.52,19.69L260.52,29.81L255.93,29.81C252.05,29.81 250.31,32.02 250.31,35.11L250.31,37.25L260.52,37.25L260.52,46.82L250.47,46.82L250.47,79.01L238.21,79.01L238.21,46.82Z" style="fill:rgb(255,254,242);fill-rule:nonzero;"/>
        </g>
        <g transform="matrix(0.418152,0,0,0.418152,192.265,56.5673)">
            <path d="M268.46,65.89L268.46,19.69L280.72,19.69L280.72,64.46C280.72,66.99 281.99,68.26 284.2,68.26L285.7,68.26L285.7,79.02L281.51,79.02C273.13,79.02 268.46,74.04 268.46,65.89Z" style="fill:rgb(255,254,242);fill-rule:nonzero;"/>
        </g>
        <g transform="matrix(0.418152,0,0,0.418152,192.265,56.5673)">
            <path d="M317.49,37.35L310.28,58.85C309.65,60.72 307.02,60.73 306.37,58.87L298.96,37.35C298.94,37.29 298.89,37.26 298.83,37.26L286.4,37.26C286.3,37.26 286.23,37.36 286.27,37.45L302.71,79.76C302.71,79.76 302.72,79.83 302.71,79.86L302.02,81.79C300.91,84.56 299.01,86.38 295.69,86.38L291.01,86.38C290.93,86.38 290.87,86.44 290.87,86.52L290.87,97.08C290.87,97.16 290.93,97.22 291.01,97.22L296.41,97.22C305.19,97.22 309.93,92.71 312.78,85.04L330.43,37.46C330.46,37.37 330.4,37.27 330.3,37.27L317.63,37.27C317.57,37.27 317.52,37.31 317.5,37.37L317.49,37.35Z" style="fill:rgb(255,254,242);fill-rule:nonzero;"/>
        </g>
    </g>
    <g transform="matrix(3.11966,0,0,3.11966,-611.338,-216.311)">
        <g transform="matrix(0.16734,-0.383208,0.383208,0.16734,174.292,84.6127)">
            <ellipse cx="29.75" cy="66.36" rx="16.73" ry="6.66" style="fill:rgb(255,254,242);"/>
        </g>
        <g transform="matrix(0.396728,-0.132128,0.132128,0.396728,185.712,65.1603)">
            <ellipse cx="55.53" cy="58.59" rx="11.7" ry="22.5" style="fill:rgb(255,254,242);"/>
        </g>
        <g transform="matrix(0.396728,-0.132128,0.132128,0.396728,185.353,60.0505)">
            <ellipse cx="17.42" cy="55.12" rx="3.36" ry="6.45" style="fill:rgb(255,254,242);"/>
        </g>
    </g>
    <g transform="matrix(1,0,0,1,71.8751,-9.06193)">
        <g transform="matrix(83.3772,0,0,83.3772,196.243,76.6095)">
        </g>
        <g transform="matrix(83.3772,0,0,83.3772,224.771,76.6095)">
        </g>
        <g transform="matrix(83.3772,0,0,83.3772,295.211,76.6095)">
        </g>
        <text x="30.392px" y="76.61px" style="font-family:'Arial-BoldMT', 'Arial', sans-serif;font-weight:700;font-size:83.377px;fill:rgb(255,254,242);">f<tspan x="59.825px 107.863px 141.978px 171.41px 196.243px 248.84px " y="76.61px 76.61px 76.61px 76.61px 76.61px 76.61px ">ertiﬂy</tspan></text>
    </g>
    <g transform="matrix(0.394548,0,0,0.394548,143.524,78.2827)">
        <g transform="matrix(83.3772,0,0,83.3772,127.693,76.6095)">
        </g>
        <text x="30.392px" y="76.61px" style="font-family:'Arial-BoldMT', 'Arial', sans-serif;font-weight:700;font-size:83.377px;fill:rgb(255,254,242);">by</text>
    </g>
</svg>
