<?xml version="1.0" encoding="UTF-8" standalone="no"?>
<!DOCTYPE svg PUBLIC "-//W3C//DTD SVG 1.1//EN" "http://www.w3.org/Graphics/SVG/1.1/DTD/svg11.dtd">
<svg width="100%" height="100%" viewBox="0 0 576 460" version="1.1" xmlns="http://www.w3.org/2000/svg" xmlns:xlink="http://www.w3.org/1999/xlink" xml:space="preserve" xmlns:serif="http://www.serif.com/" style="fill-rule:evenodd;clip-rule:evenodd;stroke-linejoin:round;stroke-miterlimit:2;">
    <g transform="matrix(2.5514,-2.5514,1.62658,1.62658,-596.891,309.986)">
        <path d="M198,125.589C198,123.056 196.689,121 195.075,121L181.925,121C180.311,121 179,123.056 179,125.589L179,367.411C179,369.944 180.311,372 181.925,372L195.075,372C196.689,372 198,369.944 198,367.411L198,125.589Z"/>
    </g>
    <g transform="matrix(2.5514,2.5514,-1.62658,1.62658,205.014,-651.891)">
        <path d="M198,125.589C198,123.056 196.689,121 195.075,121L181.925,121C180.311,121 179,123.056 179,125.589L179,367.411C179,369.944 180.311,372 181.925,372L195.075,372C196.689,372 198,369.944 198,367.411L198,125.589Z"/>
    </g>
</svg>
